<svg xmlns="http://www.w3.org/2000/svg" viewBox="0 0 64 64">
  <defs>
    <linearGradient id="brainGrad" x1="0" x2="1" y1="0" y2="1">
      <stop offset="0%" stop-color="#8b5cf6"/>
      <stop offset="100%" stop-color="#06b6d4"/>
    </linearGradient>
  </defs>
  <rect width="64" height="64" rx="14" fill="url(#brainGrad)"/>
  <g fill="#fff">
    <!-- simplified brain: two lobes -->
    <path d="M22 20c-5 0-9 4-9 9 0 3 1 5 3 7-1 1-2 3-2 5 0 4 3 7 7 7h7V20h-6z"/>
    <path d="M42 20c5 0 9 4 9 9 0 3-1 5-3 7 1 1 2 3 2 5 0 4-3 7-7 7h-7V20h6z"/>
  </g>
</svg>
